HIERARCHY
ROOT joint_Root
{
	OFFSET 0.0 0.0 0.0
	CHANNELS 6 Xposition Yposition Zposition Zrotation Xrotation Yrotation 
	JOINT Hips
	{
		OFFSET 4.5925 91.4895 -427.239
		CHANNELS 6 Xposition Yposition Zposition Zrotation Xrotation Yrotation 
		JOINT Spine
		{
			OFFSET 15.7357 0.0 0.0
			CHANNELS 6 Xposition Yposition Zposition Zrotation Xrotation Yrotation 
			JOINT Chest
			{
				OFFSET 8.98455 -0.406207 0.0
				CHANNELS 6 Xposition Yposition Zposition Zrotation Xrotation Yrotation 
				JOINT Neck
				{
					OFFSET 16.3773 0.0 0.0
					CHANNELS 6 Xposition Yposition Zposition Zrotation Xrotation Yrotation 
					JOINT Head
					{
						OFFSET 6.45672 0.0 0.0
						CHANNELS 6 Xposition Yposition Zposition Zrotation Xrotation Yrotation 
						End Site
						{
							OFFSET 0.0 0.0 0.0
						}
					}
				}
				JOINT Shoulder_L
				{
					OFFSET 12.9942 -0.242716 4.98039
					CHANNELS 6 Xposition Yposition Zposition Zrotation Xrotation Yrotation 
					JOINT UpperArm_L
					{
						OFFSET 5.34809 0.0 0.0
						CHANNELS 6 Xposition Yposition Zposition Zrotation Xrotation Yrotation 
						JOINT LowerArm_L
						{
							OFFSET 24.3286 1.87007e-05 0.0
							CHANNELS 6 Xposition Yposition Zposition Zrotation Xrotation Yrotation 
							JOINT Hand_L
							{
								OFFSET 22.2916 0.0 0.0
								CHANNELS 6 Xposition Yposition Zposition Zrotation Xrotation Yrotation 
								End Site
								{
									OFFSET 0.0 0.0 0.0
								}
							}
						}
					}
				}
				JOINT Shoulder_R
				{
					OFFSET 12.9945 -0.242716 -4.98039
					CHANNELS 6 Xposition Yposition Zposition Zrotation Xrotation Yrotation 
					JOINT UpperArm_R
					{
						OFFSET -5.34813 0.0 0.0
						CHANNELS 6 Xposition Yposition Zposition Zrotation Xrotation Yrotation 
						JOINT LowerArm_R
						{
							OFFSET -24.3289 0.000322201 0.0
							CHANNELS 6 Xposition Yposition Zposition Zrotation Xrotation Yrotation 
							JOINT Hand_R
							{
								OFFSET -22.2915 -0.000108084 0.0
								CHANNELS 6 Xposition Yposition Zposition Zrotation Xrotation Yrotation 
								End Site
								{
									OFFSET 0.0 0.0 0.0
								}
							}
						}
					}
				}
			}
		}
		JOINT UpperLeg_L
		{
			OFFSET -2.19248 -6.46944 0.0
			CHANNELS 6 Xposition Yposition Zposition Zrotation Xrotation Yrotation 
			JOINT LowerLeg_L
			{
				OFFSET 39.0811 0.0 -1.23785e-05
				CHANNELS 6 Xposition Yposition Zposition Zrotation Xrotation Yrotation 
				JOINT Foot_L
				{
					OFFSET 40.9854 0.0 -1.26872e-05
					CHANNELS 6 Xposition Yposition Zposition Zrotation Xrotation Yrotation 
					JOINT Toes_L
					{
						OFFSET 11.7543 0.0 0.0
						CHANNELS 6 Xposition Yposition Zposition Zrotation Xrotation Yrotation 
						End Site
						{
							OFFSET 0.0 0.0 0.0
						}
					}
				}
			}
		}
		JOINT UpperLeg_R
		{
			OFFSET -2.19251 6.46944 0.0
			CHANNELS 6 Xposition Yposition Zposition Zrotation Xrotation Yrotation 
			JOINT LowerLeg_R
			{
				OFFSET -39.0811 -0.00228153 -0.0401928
				CHANNELS 6 Xposition Yposition Zposition Zrotation Xrotation Yrotation 
				JOINT Foot_R
				{
					OFFSET -40.9854 0.0 0.0
					CHANNELS 6 Xposition Yposition Zposition Zrotation Xrotation Yrotation 
					JOINT Toes_R
					{
						OFFSET -11.7543 0.0 0.0
						CHANNELS 6 Xposition Yposition Zposition Zrotation Xrotation Yrotation 
						End Site
						{
							OFFSET 0.0 0.0 0.0
						}
					}
				}
			}
		}
	}
}
MOTION
Frames:	4
Frame Time:	0.0333333
0.000000 0.000000 0.000000 0.000000 0.000000 -0.000000 -2.974930 90.350300 1.592100 85.622700 -7.471420 5.289060 15.735700 0.000005 -0.000001 82.376400 85.784300 -85.657200 8.984550 -0.406207 -0.000000 0.573386 -0.912487 -6.552180 16.377300 -0.000001 -0.000001 5.046840 -1.697600 2.837790 6.456720 -0.000001 -0.000000 1.488380 0.905832 0.592079 12.994200 -0.242716 4.980390 -90.168400 0.450745 -69.511900 5.348090 -0.000007 -0.000001 -67.473100 19.301600 -3.547100 24.328600 0.000019 0.000005 6.048490 18.116400 -18.817300 22.291600 -0.000001 0.000005 13.121900 5.109600 4.893690 12.994500 -0.242716 -4.980390 91.280800 -4.370470 -73.649500 -5.348130 -0.000001 -0.000004 -46.753100 -49.655900 -62.821800 -24.328900 0.000322 -0.000009 -17.980300 -27.044900 -35.517500 -22.291500 -0.000108 -0.000004 26.227400 4.687820 13.380200 -2.192480 -6.469440 -0.000000 -170.031000 -10.832200 -3.441620 39.081100 -0.000007 -0.000012 -0.303423 0.461767 33.309100 40.985400 -0.000006 -0.000013 -3.204030 0.965181 -73.455700 11.754300 -0.000000 0.000003 -0.000291 -0.002535 -16.672100 -2.192510 6.469440 -0.000001 -179.050000 16.094100 177.622000 -39.081100 -0.002282 -0.040193 0.023794 -0.034709 30.558500 -40.985400 0.000008 0.000006 9.905360 15.113300 -73.592300 -11.754300 -0.000006 -0.000006 -0.001565 -0.023129 -17.513600
0.000000 0.000000 0.000000 0.000000 0.000000 -0.000000 -2.670870 90.434700 1.706020 86.026100 -7.498260 5.092980 15.735700 0.000005 -0.000001 80.756300 85.829100 -83.773400 8.984550 -0.406207 -0.000000 0.444611 -1.146980 -6.025400 16.377300 -0.000001 -0.000001 5.992350 -2.432730 4.110270 6.456720 -0.000001 -0.000000 1.956310 0.491384 0.553338 12.994200 -0.242716 4.980390 -90.160900 0.430987 -69.529100 5.348090 -0.000007 -0.000001 -67.957800 19.910700 -3.224290 24.328600 0.000019 0.000005 6.238730 19.275100 -18.322900 22.291600 -0.000001 0.000005 12.286700 5.091420 5.309650 12.994500 -0.242716 -4.980390 91.819500 -5.742090 -72.386000 -5.348130 -0.000001 -0.000004 -48.665300 -53.759600 -71.310600 -24.328900 0.000322 -0.000009 -19.471200 -21.585900 -43.862800 -22.291500 -0.000108 -0.000004 28.238400 4.915280 9.078380 -2.192480 -6.469440 -0.000000 -170.634000 -11.340300 -3.312460 39.081100 -0.000007 -0.000012 -0.287552 0.447719 32.711500 40.985400 -0.000006 -0.000013 -2.883080 1.223400 -73.238100 11.754300 -0.000000 0.000003 -0.000263 -0.002331 -16.664800 -2.192510 6.469440 -0.000001 -179.551000 15.705400 177.443000 -39.081100 -0.002282 -0.040193 0.023519 -0.034431 30.421000 -40.985400 0.000008 0.000006 9.573340 14.922500 -73.347300 -11.754300 -0.000006 -0.000006 -0.047742 -0.077012 -17.504300
0.000000 0.000000 0.000000 0.000000 0.000000 -0.000000 -2.455880 90.519700 1.819900 86.348900 -7.042160 4.804240 15.735700 0.000005 -0.000001 78.695800 85.868700 -81.397800 8.984550 -0.406207 -0.000000 0.308381 -1.443450 -5.396370 16.377300 -0.000001 -0.000001 6.764850 -3.197770 5.502210 6.456720 -0.000001 -0.000000 2.415310 0.143807 0.387597 12.994200 -0.242716 4.980390 -90.202700 0.544194 -69.570700 5.348090 -0.000007 -0.000001 -68.357300 19.986400 -2.776040 24.328600 0.000019 0.000005 6.064960 18.688100 -18.345500 22.291600 -0.000001 0.000005 12.854800 5.095160 5.224260 12.994500 -0.242716 -4.980390 92.482400 -7.140220 -70.772500 -5.348130 -0.000001 -0.000004 -52.177200 -58.362900 -81.534500 -24.328900 0.000322 -0.000009 -17.819800 -14.596900 -51.907800 -22.291500 -0.000108 -0.000004 30.585000 5.187120 3.049120 -2.192480 -6.469440 -0.000000 -171.167000 -11.341500 -3.403630 39.081100 -0.000007 -0.000012 -0.278927 0.443771 32.151400 40.985400 -0.000006 -0.000013 -2.624570 1.507890 -72.990900 11.754300 -0.000000 0.000003 -0.000254 -0.002263 -16.662300 -2.192510 6.469440 -0.000001 -179.888000 15.600000 177.311000 -39.081100 -0.002282 -0.040193 0.024187 -0.035989 30.127500 -40.985400 0.000008 0.000006 9.301930 14.479100 -73.146600 -11.754300 -0.000006 -0.000006 -0.072887 -0.107077 -17.532700
0.000000 0.000000 0.000000 0.000000 0.000000 -0.000000 -2.351030 90.593000 1.914650 86.572700 -6.394490 4.540500 15.735700 0.000005 -0.000001 77.904400 85.860100 -80.288700 8.984550 -0.406207 -0.000000 0.301871 -1.579250 -4.761370 16.377300 -0.000001 -0.000001 7.424460 -3.873570 6.768960 6.456720 -0.000001 -0.000000 2.429570 -0.319930 0.129894 12.994200 -0.242716 4.980390 -90.186200 0.501755 -69.642900 5.348090 -0.000007 -0.000001 -68.707600 20.105000 -2.727280 24.328600 0.000019 0.000005 6.012770 18.140400 -18.690700 22.291600 -0.000001 0.000005 13.658800 5.096530 5.193040 12.994500 -0.242716 -4.980390 93.178000 -8.454840 -69.312100 -5.348130 -0.000001 -0.000004 -58.219600 -63.287200 -93.490000 -24.328900 0.000322 -0.000009 -12.938500 -7.465300 -60.515800 -22.291500 -0.000108 -0.000004 33.456900 5.403730 -3.038460 -2.192480 -6.469440 -0.000000 -171.559000 -11.050300 -3.529290 39.081100 -0.000007 -0.000012 -0.266585 0.432078 31.674400 40.985400 -0.000006 -0.000013 -2.468790 1.726480 -72.771600 11.754300 -0.000000 0.000003 -0.000231 -0.002087 -16.656000 -2.192510 6.469440 -0.000001 179.927000 15.683300 177.246000 -39.081100 -0.002282 -0.040193 0.023915 -0.036000 29.793700 -40.985400 0.000008 0.000006 8.999960 14.021500 -72.941900 -11.754300 -0.000006 -0.000006 -0.103052 -0.142530 -17.534000
